# xmcd
#
# Track frame offsets: 
#        150
#        16670
#        34860
#        57840
#        73227
#        92782
#        108790
#        126887
#        154245
#        171415
#
# Disc length: 2447 seconds
#
# Revision: 0
# Processed by: cddbd v1.5.2PL0 Copyright (c) Steve Scherf et al.
# Submitted via: ExactAudioCopy v0.95b3
#
DISCID=81098d0a
DTITLE=Full Tilt - Royal Blue
DYEAR=2007
DGENRE=Blues
TTITLE0=You Ruined Me Baby
TTITLE1=Entire Nation
TTITLE2=Royal Blue
TTITLE3=Dead Mans Curve
TTITLE4=You Really Knock Me Out
TTITLE5=Broke Down Blues
TTITLE6=Little Boy Blue
TTITLE7=Another Mans Name
TTITLE8=Assassinated By the Blues
TTITLE9=Funky Bone
EXTD=
EXTT0=
EXTT1=
EXTT2=
EXTT3=
EXTT4=
EXTT5=
EXTT6=
EXTT7=
EXTT8=
EXTT9=
PLAYORDER=
